<svg xmlns="http://www.w3.org/2000/svg" width="240" height="120" viewBox="0 0 240 120">
  <g fill="none" stroke="#fff" stroke-width="3" stroke-linecap="round" stroke-linejoin="round" opacity="0.16">
    <path d="M42 24c25 0 33 18 18 32c-12 11-29 7-30 22c-1 13 19 18 38 8 M98 28c-24 8-31 24-18 39c10 11 28 10 32 23"/>
    <path d="M150 30c22 0 40 10 48 27c-15 10-34 13-52 9c-10-2-18-12-18-21c0-9 8-15 22-15z"/>
    <path d="M42 48h64 M42 64h64"/>
  </g>
  <g fill="#fff" opacity="0.055">
    <circle cx="20" cy="20" r="2"/><circle cx="112" cy="96" r="2"/><circle cx="228" cy="18" r="2"/>
  </g>
</svg>
