<svg xmlns="http://www.w3.org/2000/svg" width="240" height="120" viewBox="0 0 240 120">
  <g fill="none" stroke="#fff" stroke-width="3" stroke-linecap="round" stroke-linejoin="round" opacity="0.16">
    <path d="M44 36a16 16 0 1 0 0 32a16 16 0 1 0 0-32 M92 28a20 20 0 1 0 0 40a20 20 0 1 0 0-40 M142 52a15 15 0 1 0 0 30a15 15 0 1 0 0-30"/>
    <path d="M174 34l38 38 M212 34l-38 38 M193 24v58"/>
    <path d="M28 84c44-18 83-18 122 0"/>
  </g>
  <g fill="#fff" opacity="0.055">
    <circle cx="20" cy="20" r="2"/><circle cx="112" cy="96" r="2"/><circle cx="228" cy="18" r="2"/>
  </g>
</svg>
