<svg xmlns="http://www.w3.org/2000/svg" width="240" height="120" viewBox="0 0 240 120">
  <g fill="none" stroke="#fff" stroke-width="3" stroke-linecap="round" stroke-linejoin="round" opacity="0.16">
    <path d="M44 34h34v34H44z M102 34h34v34h-34z M160 34h34v34h-34z M78 51h24 M136 51h24 M61 68v18h116V68"/>
    <path d="M36 90h40 M96 90h40 M156 90h40"/>
    <path d="M214 36a18 18 0 1 0 0 36a18 18 0 1 0 0-36"/>
  </g>
  <g fill="#fff" opacity="0.055">
    <circle cx="20" cy="20" r="2"/><circle cx="112" cy="96" r="2"/><circle cx="228" cy="18" r="2"/>
  </g>
</svg>
