<svg xmlns="http://www.w3.org/2000/svg" width="240" height="120" viewBox="0 0 240 120">
  <g fill="none" stroke="#fff" stroke-width="3" stroke-linecap="round" stroke-linejoin="round" opacity="0.16">
    <path d="M88 82c-28-2-34-18-24-48c4-12 14-20 24-10v58z M104 82c28-2 34-18 24-48c-4-12-14-20-24-10v58z M96 22v62 M96 42h-18 M96 42h18"/>
    <path d="M32 34c12 0 20 7 22 20c2 13-6 24-22 26 M32 34c-13 13-13 33 0 46"/>
    <path d="M184 38c10-16 36-13 42 7c5 17-8 34-28 34c-13 0-23-6-29-18"/>
  </g>
  <g fill="#fff" opacity="0.055">
    <circle cx="20" cy="20" r="2"/><circle cx="112" cy="96" r="2"/><circle cx="228" cy="18" r="2"/>
  </g>
</svg>
