<svg xmlns="http://www.w3.org/2000/svg" width="240" height="120" viewBox="0 0 240 120">
  <g fill="none" stroke="#fff" stroke-width="3" stroke-linecap="round" stroke-linejoin="round" opacity="0.16">
    <path d="M40 35c31-17 80-11 96 15c-8 19-29 29-58 26c-25-2-42-16-38-41z M91 48c5 11 12 17 24 19"/>
    <path d="M164 36c18 0 30 9 32 25c-12 7-28 8-45 4c-9-3-14-11-12-18c2-7 11-11 25-11z"/>
    <path d="M214 42c12 14 12 14 12 23a12 12 0 0 1-24 0c0-9 0-9 12-23z"/>
  </g>
  <g fill="#fff" opacity="0.055">
    <circle cx="20" cy="20" r="2"/><circle cx="112" cy="96" r="2"/><circle cx="228" cy="18" r="2"/>
  </g>
</svg>
