<svg xmlns="http://www.w3.org/2000/svg" width="240" height="120" viewBox="0 0 240 120">
  <g fill="none" stroke="#fff" stroke-width="3" stroke-linecap="round" stroke-linejoin="round" opacity="0.16">
    <path d="M52 78C28 56 18 43 20 32c2-13 17-18 29-7c12-11 28-6 30 7c2 11-7 24-27 46z"/>
    <path d="M126 36c24-16 54-8 66 14c-16 16-42 19-64 8c-8-4-9-15-2-22z"/>
    <path d="M200 34c18 0 28 14 28 28s-10 28-28 28s-28-14-28-28s10-28 28-28z"/>
  </g>
  <g fill="#fff" opacity="0.055">
    <circle cx="20" cy="20" r="2"/><circle cx="112" cy="96" r="2"/><circle cx="228" cy="18" r="2"/>
  </g>
</svg>
