<svg xmlns="http://www.w3.org/2000/svg" width="240" height="120" viewBox="0 0 240 120">
  <g fill="none" stroke="#fff" stroke-width="3" stroke-linecap="round" stroke-linejoin="round" opacity="0.16">
    <path d="M62 34a22 22 0 1 0 0 44a22 22 0 1 0 0-44 M62 22v16 M62 74v16 M34 34l12 12 M78 78l12 12 M22 62h16 M86 62h16"/>
    <path d="M146 34c20 0 32 12 32 28s-12 28-32 28s-32-12-32-28s12-28 32-28z M132 62h28"/>
    <path d="M202 26l24 24-24 24-24-24z"/>
  </g>
  <g fill="#fff" opacity="0.055">
    <circle cx="20" cy="20" r="2"/><circle cx="112" cy="96" r="2"/><circle cx="228" cy="18" r="2"/>
  </g>
</svg>
