<svg xmlns="http://www.w3.org/2000/svg" width="240" height="120" viewBox="0 0 240 120">
  <g fill="none" stroke="#fff" stroke-width="3" stroke-linecap="round" stroke-linejoin="round" opacity="0.16">
    <path d="M58 26c-25 5-35 31-22 49c9 13 27 10 30-7c3-17-9-23-8-42z M96 26c25 5 35 31 22 49c-9 13-27 10-30-7c-3-17 9-23 8-42z M78 46v38"/>
    <path d="M160 28c18 22 18 22 18 34a18 18 0 0 1-36 0c0-12 0-12 18-34z"/>
    <path d="M205 36c16 14 16 14 16 24a16 16 0 0 1-32 0c0-10 0-10 16-24z"/>
  </g>
  <g fill="#fff" opacity="0.055">
    <circle cx="20" cy="20" r="2"/><circle cx="112" cy="96" r="2"/><circle cx="228" cy="18" r="2"/>
  </g>
</svg>
