<svg xmlns="http://www.w3.org/2000/svg" width="240" height="120" viewBox="0 0 240 120">
  <g fill="none" stroke="#fff" stroke-width="3" stroke-linecap="round" stroke-linejoin="round" opacity="0.16">
    <path d="M70 26c18 0 32 14 32 34c0 20-14 34-32 34S38 80 38 60c0-20 14-34 32-34z M70 48a12 12 0 1 0 0 24a12 12 0 1 0 0-24"/>
    <path d="M150 30c14 0 25 10 25 24s-11 24-25 24s-25-10-25-24s11-24 25-24z M150 78v18 M140 96h20"/>
    <path d="M212 38c12 12 12 12 12 24a12 12 0 0 1-24 0c0-12 0-12 12-24z"/>
  </g>
  <g fill="#fff" opacity="0.055">
    <circle cx="20" cy="20" r="2"/><circle cx="112" cy="96" r="2"/><circle cx="228" cy="18" r="2"/>
  </g>
</svg>
