<svg xmlns="http://www.w3.org/2000/svg" width="240" height="120" viewBox="0 0 240 120">
  <g fill="none" stroke="#fff" stroke-width="3" stroke-linecap="round" stroke-linejoin="round" opacity="0.16">
    <path d="M58 30c17 0 28 12 28 28S75 86 58 86S30 74 30 58S41 30 58 30z M58 44v28 M44 58h28"/>
    <path d="M142 34c18-10 40-4 50 13c-13 13-36 16-56 7c-9-4-8-14 6-20z"/>
    <path d="M204 28c15 12 15 12 15 24a15 15 0 0 1-30 0c0-12 0-12 15-24z"/>
  </g>
  <g fill="#fff" opacity="0.055">
    <circle cx="20" cy="20" r="2"/><circle cx="112" cy="96" r="2"/><circle cx="228" cy="18" r="2"/>
  </g>
</svg>
