<svg xmlns="http://www.w3.org/2000/svg" width="240" height="120" viewBox="0 0 240 120">
  <g fill="none" stroke="#fff" stroke-width="3" stroke-linecap="round" stroke-linejoin="round" opacity="0.16">
    <path d="M56 24v45a18 18 0 1 0 24 17V24a12 12 0 0 0-24 0z M68 42v42"/>
    <path d="M132 28l14 24 14-24 M146 52v38"/>
    <path d="M198 36a20 20 0 1 0 0 40a20 20 0 1 0 0-40 M198 24v12 M198 76v12 M170 56h12 M214 56h12"/>
  </g>
  <g fill="#fff" opacity="0.055">
    <circle cx="20" cy="20" r="2"/><circle cx="112" cy="96" r="2"/><circle cx="228" cy="18" r="2"/>
  </g>
</svg>
