<svg xmlns="http://www.w3.org/2000/svg" width="240" height="120" viewBox="0 0 240 120">
  <g fill="none" stroke="#fff" stroke-width="3" stroke-linecap="round" stroke-linejoin="round" opacity="0.16">
    <path d="M58 34a19 19 0 1 0 0 38a19 19 0 1 0 0-38 M42 76c10 12 24 12 34 0"/>
    <path d="M128 28c13 0 24 10 24 24s-11 24-24 24s-24-10-24-24s11-24 24-24z M116 52h24 M128 40v24"/>
    <path d="M198 36c18 0 28 14 28 28c0 14-10 24-28 24c-18 0-28-10-28-24c0-14 10-28 28-28z"/>
  </g>
  <g fill="#fff" opacity="0.055">
    <circle cx="20" cy="20" r="2"/><circle cx="112" cy="96" r="2"/><circle cx="228" cy="18" r="2"/>
  </g>
</svg>
