<svg xmlns="http://www.w3.org/2000/svg" width="240" height="120" viewBox="0 0 240 120">
  <g fill="none" stroke="#fff" stroke-width="3" stroke-linecap="round" stroke-linejoin="round" opacity="0.16">
    <path d="M60 88c-18-15-16-34-2-49c2 13 11 19 20 26c8-14 5-24-4-39c23 15 35 36 20 56c-8 11-23 15-34 6z"/>
    <path d="M148 30c14 14 14 14 14 26a14 14 0 0 1-28 0c0-12 0-12 14-26z"/>
    <path d="M200 36l20 20-34 34-20-20z"/>
  </g>
  <g fill="#fff" opacity="0.055">
    <circle cx="20" cy="20" r="2"/><circle cx="112" cy="96" r="2"/><circle cx="228" cy="18" r="2"/>
  </g>
</svg>
