<svg xmlns="http://www.w3.org/2000/svg" width="240" height="120" viewBox="0 0 240 120">
  <g fill="none" stroke="#fff" stroke-width="3" stroke-linecap="round" stroke-linejoin="round" opacity="0.16">
    <path d="M54 28c18 22 18 22 18 34a18 18 0 0 1-36 0c0-12 0-12 18-34z"/>
    <path d="M128 30v52 M106 56h44 M112 42h32 M112 70h32"/>
    <path d="M202 34c16 18 16 18 16 28a16 16 0 0 1-32 0c0-10 0-10 16-28z M178 86h48"/>
  </g>
  <g fill="#fff" opacity="0.055">
    <circle cx="20" cy="20" r="2"/><circle cx="112" cy="96" r="2"/><circle cx="228" cy="18" r="2"/>
  </g>
</svg>
