<svg xmlns="http://www.w3.org/2000/svg" width="240" height="120" viewBox="0 0 240 120">
  <g fill="none" stroke="#fff" stroke-width="3" stroke-linecap="round" stroke-linejoin="round" opacity="0.16">
    <path d="M54 24h36l-4 18v36c0 8-7 14-14 14H72c-7 0-14-6-14-14V42z M60 42h24 M60 62h24"/>
    <path d="M144 28l42 42 M186 28l-42 42 M165 28v42"/>
    <path d="M216 36c-16 10-24 22-24 36h48c0-14-8-26-24-36z"/>
  </g>
  <g fill="#fff" opacity="0.055">
    <circle cx="20" cy="20" r="2"/><circle cx="112" cy="96" r="2"/><circle cx="228" cy="18" r="2"/>
  </g>
</svg>
