<svg xmlns="http://www.w3.org/2000/svg" width="240" height="120" viewBox="0 0 240 120">
  <g fill="none" stroke="#fff" stroke-width="3" stroke-linecap="round" stroke-linejoin="round" opacity="0.16">
    <path d="M48 24c-18 0-28 12-28 28c0 17 12 28 29 28h20c15 0 25-10 25-24c0-20-16-32-46-32z M34 46c15-7 31-7 45 0 M32 60c17-4 33-3 49 5"/>
    <path d="M148 22v62 M122 38l26 15 26-15 M122 68l26-15 26 15"/>
    <path d="M198 34c20 0 30 14 22 30c-5 10-16 15-30 12 M198 34c-12 11-13 27-3 42"/>
  </g>
  <g fill="#fff" opacity="0.055">
    <circle cx="20" cy="20" r="2"/><circle cx="112" cy="96" r="2"/><circle cx="228" cy="18" r="2"/>
  </g>
</svg>
