<svg xmlns="http://www.w3.org/2000/svg" width="240" height="120" viewBox="0 0 240 120">
  <g fill="none" stroke="#fff" stroke-width="3" stroke-linecap="round" stroke-linejoin="round" opacity="0.16">
    <path d="M32 34h34v34H32z M39 42h20 M39 51h20 M39 60h13"/>
    <path d="M138 24l24 14v28l-24 14-24-14V38z M126 44h24 M126 58h24"/>
    <path d="M204 32a18 18 0 1 0 0 36a18 18 0 1 0 0-36 M192 50h24 M204 38v24"/>
  </g>
  <g fill="#fff" opacity="0.055">
    <circle cx="20" cy="20" r="2"/><circle cx="112" cy="96" r="2"/><circle cx="228" cy="18" r="2"/>
  </g>
</svg>
